<svg width="28" height="27" viewBox="0 0 28 27" fill="none" xmlns="http://www.w3.org/2000/svg">
<path d="M12.0694 2.10369C12.0694 1.4233 11.6553 0.772501 11.034 0.476682C10.1466 0.0625354 9.05206 0.447101 8.63791 1.33456L5.02892 8.99627H2.30739C1.03537 8.99627 0 10.0316 0 11.3037V11.4811C0 12.694 0.917039 13.6702 2.1299 13.7885L3.04694 22.249C3.28359 24.3789 5.08809 26.0059 7.24757 26.0059H20.3523C22.5118 26.0059 24.3163 24.3789 24.553 22.249L25.47 13.7885C26.6533 13.6998 27.5999 12.694 27.5999 11.4811V11.3037C27.5999 10.0316 26.5645 8.99627 25.2925 8.99627H22.4527L18.8141 1.33456C18.3999 0.447101 17.3054 0.0625354 16.418 0.476682C15.5009 0.920411 15.1459 1.98536 15.5601 2.87282L18.4591 8.99627H8.9929L11.8919 2.9024C12.0103 2.63616 12.0694 2.36992 12.0694 2.10369ZM23.488 22.1011C23.3105 23.7281 21.9498 24.9409 20.3228 24.9409H7.21798C5.59098 24.9409 4.23021 23.7281 4.05272 22.1011L3.13568 13.759H24.3755L23.488 22.1011ZM16.4771 2.42909C16.2405 1.9262 16.5954 1.33456 17.1575 1.33456C17.4533 1.33456 17.7196 1.51205 17.8379 1.77829L21.5356 9.55833C21.7131 9.94289 21.5652 10.3866 21.1806 10.5641C20.7961 10.7416 20.3524 10.5937 20.1749 10.2091L16.4771 2.42909ZM18.9324 10.0316L19.2282 10.6529C19.6424 11.5403 20.7369 11.9249 21.6244 11.5107C22.216 11.2445 22.6006 10.6529 22.6597 10.0316H25.2629C25.9729 10.0316 26.535 10.5937 26.535 11.3037V11.4811C26.535 12.1911 25.9729 12.7532 25.2629 12.7532C17.8083 12.7532 9.55495 12.7532 2.30739 12.7532C1.59742 12.7532 1.03537 12.1911 1.03537 11.4811V11.3037C1.03537 10.5937 1.59742 10.0316 2.30739 10.0316H4.82185C4.9106 11.0078 5.76847 11.777 6.74467 11.6882C7.39548 11.6291 7.95753 11.2445 8.22377 10.6529L8.51959 10.0316H18.9324ZM10.9749 2.42909L7.27715 10.2091C7.09966 10.5937 6.65593 10.7416 6.27136 10.5641C5.8868 10.3866 5.73889 9.91331 5.91638 9.55833L9.58454 1.77829C9.76203 1.39372 10.2353 1.24581 10.5903 1.4233C10.9749 1.60079 11.1524 2.0741 10.9749 2.42909Z" fill="white"/>
<path d="M20.0269 18.1075C20.3228 18.1075 20.5594 17.8709 20.5594 17.575C20.5594 17.2792 20.3228 17.0426 20.0269 17.0426H7.42505C7.12923 17.0426 6.89258 17.2792 6.89258 17.575C6.89258 17.8709 7.12923 18.1075 7.42505 18.1075H20.0269Z" fill="white"/>
<path d="M19.554 21.6573C19.8498 21.6573 20.0864 21.4207 20.0864 21.1248C20.0864 20.829 19.8498 20.5924 19.554 20.5924H7.89868C7.60287 20.5924 7.36621 20.829 7.36621 21.1248C7.36621 21.4207 7.60287 21.6573 7.89868 21.6573H19.554Z" fill="white"/>
</svg>
