<svg width="84" height="84" viewBox="0 0 84 84" fill="none" xmlns="http://www.w3.org/2000/svg">
<circle cx="42" cy="41.999" r="42" fill="url(#paint0_linear_513_380)"/>
<path d="M37 36.5L27.5 38.5L34.5 46L33 55.5L42 51.5L51 55L49.5 46L56 39L47 37L42 28.5L37 36.5Z" fill="#FAD370"/>
<path d="M57.037 38.4486C56.8206 37.7808 56.2542 37.3034 55.5595 37.2026L47.3241 36.0058L43.6412 28.544C43.3311 27.9141 42.7022 27.5229 42 27.5229C41.2979 27.5229 40.6689 27.9141 40.3589 28.5434L36.6757 36.0058L28.4403 37.2026C27.746 37.3034 27.1798 37.7805 26.9627 38.4484C26.7463 39.1151 26.9236 39.8338 27.4259 40.3242L33.3854 46.1329L31.9786 54.3349C31.8597 55.0265 32.1385 55.7124 32.7063 56.1251C33.0271 56.3584 33.4026 56.477 33.7805 56.4769C34.0714 56.4769 34.3637 56.4066 34.6339 56.2647L42 52.3921L49.3656 56.2648C49.6271 56.4021 49.9216 56.4748 50.217 56.4748C50.6064 56.4748 50.9783 56.3539 51.2932 56.1251C51.8601 55.7129 52.1391 55.0272 52.0209 54.3353L51.4645 51.0904C51.3847 50.6262 50.9435 50.3144 50.4799 50.3941C50.0157 50.4737 49.7041 50.9146 49.7837 51.3786L50.3402 54.623C50.3481 54.6699 50.3285 54.7182 50.2904 54.7458C50.2338 54.787 50.1928 54.7731 50.1587 54.7552L42.3962 50.6742C42.148 50.5437 41.8514 50.5436 41.6027 50.6742L33.8395 54.7554C33.798 54.7772 33.7464 54.7734 33.7084 54.7458C33.6697 54.7176 33.6506 54.671 33.6587 54.6236L35.1414 45.9795C35.1889 45.7027 35.0973 45.4206 34.8963 45.2247L28.6161 39.1035C28.5822 39.0703 28.5695 39.0199 28.584 38.9754C28.5986 38.9303 28.6383 38.8968 28.685 38.8901L37.3641 37.6289C37.6419 37.5885 37.882 37.4141 38.0062 37.1624L41.888 29.2975C41.9302 29.2119 42.0689 29.2112 42.1115 29.2979L45.9932 37.1624C46.1173 37.414 46.3574 37.5885 46.6351 37.6289L55.3144 38.8901C55.361 38.8969 55.4004 38.93 55.4152 38.9757C55.4298 39.0203 55.4172 39.0704 55.3835 39.1032L49.1032 45.2247C48.9023 45.4206 48.8105 45.7029 48.8581 45.9795L49.3266 48.7106C49.406 49.1746 49.8471 49.4864 50.3109 49.4068C50.7751 49.3271 51.0869 48.8863 51.0071 48.4222L50.6145 46.1329L56.574 40.3239C57.0767 39.8337 57.254 39.1148 57.037 38.4486Z" fill="url(#paint1_linear_513_380)"/>
<path d="M19.9024 41.1465H15.8526C15.3817 41.1465 15 41.5282 15 41.9991C15 42.47 15.3817 42.8517 15.8526 42.8517H19.9024C20.3734 42.8517 20.755 42.4699 20.755 41.9991C20.755 41.5282 20.3733 41.1465 19.9024 41.1465Z" fill="url(#paint2_linear_513_380)"/>
<path d="M68.1474 41.1465H64.0976C63.6266 41.1465 63.245 41.5283 63.245 41.9991C63.245 42.47 63.6267 42.8517 64.0976 42.8517H68.1474C68.6184 42.8517 69 42.4699 69 41.9991C69 41.5282 68.6184 41.1465 68.1474 41.1465Z" fill="url(#paint3_linear_513_380)"/>
<path d="M25.7718 57.0217L22.9083 59.8852C22.5752 60.218 22.5752 60.7579 22.9082 61.0909C23.0747 61.2574 23.2929 61.3406 23.5111 61.3406C23.7292 61.3406 23.9476 61.2574 24.1139 61.091L26.9775 58.2274C27.3105 57.8946 27.3105 57.3547 26.9776 57.0217C26.6446 56.6887 26.1047 56.6887 25.7718 57.0217Z" fill="url(#paint4_linear_513_380)"/>
<path d="M59.8859 22.9071L57.0222 25.7705C56.6892 26.1035 56.6892 26.6434 57.0221 26.9764C57.1887 27.1429 57.4069 27.2261 57.6251 27.2261C57.8433 27.2261 58.0615 27.1429 58.2279 26.9763L61.0915 24.1128C61.4246 23.7799 61.4246 23.24 61.0916 22.9071C60.7587 22.574 60.2188 22.5739 59.8859 22.9071Z" fill="url(#paint5_linear_513_380)"/>
<path d="M42 63.2437C41.529 63.2437 41.1474 63.6255 41.1474 64.0963V68.1459C41.1474 68.6169 41.5291 68.9986 42 68.9986C42.471 68.9986 42.8526 68.6168 42.8526 68.1459V64.0963C42.8526 63.6253 42.471 63.2437 42 63.2437Z" fill="url(#paint6_linear_513_380)"/>
<path d="M42 20.7542C42.471 20.7542 42.8526 20.3723 42.8526 19.9015V15.8517C42.8526 15.3807 42.4709 14.999 42 14.999C41.529 14.999 41.1474 15.3808 41.1474 15.8517V19.9015C41.1474 20.3725 41.529 20.7542 42 20.7542Z" fill="url(#paint7_linear_513_380)"/>
<path d="M58.2279 57.0217C57.8951 56.6887 57.3552 56.6887 57.0221 57.0217C56.6892 57.3546 56.6892 57.8945 57.0222 58.2274L59.8859 61.091C60.0524 61.2575 60.2707 61.3407 60.4888 61.3407C60.7069 61.3407 60.9252 61.2575 61.0916 61.0909C61.4246 60.758 61.4246 60.2181 61.0915 59.8852L58.2279 57.0217Z" fill="url(#paint8_linear_513_380)"/>
<path d="M25.7718 26.9767C25.9384 27.1433 26.1566 27.2265 26.3748 27.2265C26.5929 27.2265 26.8112 27.1433 26.9777 26.977C27.3106 26.644 27.3106 26.1041 26.9777 25.7711L24.1141 22.9074C23.7812 22.5745 23.2414 22.5745 22.9083 22.9074C22.5753 23.2403 22.5753 23.7802 22.9083 24.1132L25.7718 26.9767Z" fill="url(#paint9_linear_513_380)"/>
<defs>
<linearGradient id="paint0_linear_513_380" x1="64.75" y1="-0.000974877" x2="14.875" y2="73.499" gradientUnits="userSpaceOnUse">
<stop stop-color="#A2BBFC"/>
<stop offset="1" stop-color="#9AB4F7"/>
</linearGradient>
<linearGradient id="paint1_linear_513_380" x1="57.128" y1="27.523" x2="24.2887" y2="31.2699" gradientUnits="userSpaceOnUse">
<stop stop-color="#2F3B49"/>
<stop offset="1" stop-color="#293543"/>
</linearGradient>
<linearGradient id="paint2_linear_513_380" x1="20.755" y1="41.1465" x2="15.1838" y2="43.1995" gradientUnits="userSpaceOnUse">
<stop stop-color="#2F3B49"/>
<stop offset="1" stop-color="#293543"/>
</linearGradient>
<linearGradient id="paint3_linear_513_380" x1="69" y1="41.1465" x2="63.4288" y2="43.1995" gradientUnits="userSpaceOnUse">
<stop stop-color="#2F3B49"/>
<stop offset="1" stop-color="#293543"/>
</linearGradient>
<linearGradient id="paint4_linear_513_380" x1="27.2273" y1="56.772" x2="22.263" y2="57.314" gradientUnits="userSpaceOnUse">
<stop stop-color="#2F3B49"/>
<stop offset="1" stop-color="#293543"/>
</linearGradient>
<linearGradient id="paint5_linear_513_380" x1="61.3414" y1="22.6572" x2="56.3769" y2="23.1993" gradientUnits="userSpaceOnUse">
<stop stop-color="#2F3B49"/>
<stop offset="1" stop-color="#293543"/>
</linearGradient>
<linearGradient id="paint6_linear_513_380" x1="42.8526" y1="63.2437" x2="40.9797" y2="63.3042" gradientUnits="userSpaceOnUse">
<stop stop-color="#2F3B49"/>
<stop offset="1" stop-color="#293543"/>
</linearGradient>
<linearGradient id="paint7_linear_513_380" x1="42.8526" y1="14.999" x2="40.9797" y2="15.0596" gradientUnits="userSpaceOnUse">
<stop stop-color="#2F3B49"/>
<stop offset="1" stop-color="#293543"/>
</linearGradient>
<linearGradient id="paint8_linear_513_380" x1="61.3414" y1="56.772" x2="56.3769" y2="57.314" gradientUnits="userSpaceOnUse">
<stop stop-color="#2F3B49"/>
<stop offset="1" stop-color="#293543"/>
</linearGradient>
<linearGradient id="paint9_linear_513_380" x1="27.2274" y1="22.6577" x2="22.2631" y2="23.1998" gradientUnits="userSpaceOnUse">
<stop stop-color="#2F3B49"/>
<stop offset="1" stop-color="#293543"/>
</linearGradient>
</defs>
</svg>
