<svg width="84" height="84" viewBox="0 0 84 84" fill="none" xmlns="http://www.w3.org/2000/svg">
<circle cx="42" cy="42" r="42" fill="url(#paint0_linear_513_381)"/>
<ellipse cx="45.5" cy="28" rx="7.5" ry="7" fill="#FAD370"/>
<path d="M28.497 41.7404C29.3252 41.7404 29.9966 40.7333 29.9966 39.4911C29.9966 38.2488 29.3252 37.2417 28.497 37.2417C27.6688 37.2417 26.9974 38.2488 26.9974 39.4911C26.9974 40.7333 27.6688 41.7404 28.497 41.7404Z" fill="url(#paint1_linear_513_381)"/>
<path d="M63.7369 42.4905C63.5381 42.4905 63.3474 42.5694 63.2068 42.7101C63.0662 42.8507 62.9872 43.0414 62.9872 43.2402C62.9861 44.1042 62.6873 44.9413 62.1409 45.6105C61.5946 46.2798 60.8342 46.7402 59.988 46.9142V40.616C59.9952 38.393 59.2636 36.2307 57.9083 34.4687C56.7601 32.9745 55.221 31.8272 53.4611 31.1537C53.9207 29.9331 54.0842 28.621 53.9383 27.3249C53.7924 26.0289 53.3412 24.786 52.6218 23.6981C51.9024 22.6103 50.9352 21.7086 49.7997 21.067C48.6642 20.4254 47.3928 20.0622 46.0897 20.0073C44.7867 19.9524 43.4892 20.2073 42.3037 20.751C41.1183 21.2948 40.0787 22.1119 39.2703 23.1354C38.4619 24.1588 37.9077 25.3594 37.6533 26.6386C37.3988 27.9177 37.4513 29.239 37.8065 30.4939H37.233C36.726 28.3591 35.5138 26.4578 33.7925 25.0972C32.0712 23.7366 29.9413 22.9963 27.7472 22.996C27.5484 22.996 27.3577 23.075 27.217 23.2156C27.0764 23.3562 26.9974 23.5469 26.9974 23.7458V31.3692C25.2695 32.1404 23.7922 33.3804 22.7331 34.9485C21.6741 36.5166 21.0757 38.3501 21.0057 40.2411H20.6243C19.9285 40.2419 19.2615 40.5186 18.7695 41.0106C18.2775 41.5025 18.0008 42.1696 18 42.8653V46.6143C18.0008 47.31 18.2775 47.9771 18.7695 48.469C19.2615 48.961 19.9285 49.2378 20.6243 49.2385H21.0057C21.0956 51.6621 22.0526 53.9729 23.7028 55.7503C25.3529 57.5277 27.5863 58.6536 29.9966 58.9229V60.8602C29.9973 61.556 30.2741 62.223 30.7661 62.715C31.258 63.207 31.9251 63.4837 32.6208 63.4845H33.3706C34.0664 63.4837 34.7334 63.207 35.2254 62.715C35.7174 62.223 35.9941 61.556 35.9949 60.8602V58.9857H44.9923V60.8602C44.9931 61.556 45.2698 62.223 45.7618 62.715C46.2537 63.207 46.9208 63.4837 47.6166 63.4845H48.3663C49.0621 63.4837 49.7291 63.207 50.2211 62.715C50.7131 62.223 50.9898 61.556 50.9906 60.8602V58.9229C53.465 58.6464 55.7507 57.4676 57.4106 55.6118C59.0705 53.756 59.9881 51.3535 59.988 48.8636V48.4344C61.2364 48.2525 62.3777 47.6277 63.2036 46.6742C64.0295 45.7206 64.4849 44.5018 64.4867 43.2402C64.4867 43.0414 64.4077 42.8507 64.2671 42.7101C64.1265 42.5694 63.9358 42.4905 63.7369 42.4905ZM45.7421 21.4964C46.8846 21.4989 48.0079 21.7908 49.0071 22.3449C50.0063 22.899 50.8488 23.6972 51.456 24.665C52.0632 25.6328 52.4154 26.7387 52.4795 27.8794C52.5437 29.0202 52.3177 30.1586 51.8228 31.1884C51.7893 31.2382 51.7623 31.292 51.7422 31.3486C51.0986 32.5932 50.0817 33.6052 48.834 34.2428H42.6502C41.3052 33.5496 40.2322 32.4245 39.6035 31.0482C38.9749 29.6719 38.827 28.1242 39.1837 26.6537C39.5404 25.1833 40.3809 23.8754 41.5704 22.9401C42.7598 22.0048 44.229 21.4963 45.7421 21.4964ZM58.4884 48.8636C58.4888 51.0906 57.6272 53.2314 56.0844 54.8373C54.5415 56.4433 52.437 57.3898 50.2117 57.4787C50.018 57.4859 49.8347 57.568 49.7002 57.7076C49.5658 57.8473 49.4908 58.0337 49.491 58.2275V60.8602C49.4908 61.1584 49.3722 61.4443 49.1613 61.6552C48.9505 61.8661 48.6645 61.9846 48.3663 61.9849H47.6166C47.3183 61.9846 47.0324 61.8661 46.8216 61.6552C46.6107 61.4443 46.4921 61.1584 46.4919 60.8602V58.236C46.4919 58.0371 46.4129 57.8464 46.2723 57.7058C46.1317 57.5652 45.9409 57.4862 45.7421 57.4862H35.2451C35.0462 57.4862 34.8555 57.5652 34.7149 57.7058C34.5743 57.8464 34.4953 58.0371 34.4953 58.236V60.8602C34.495 61.1584 34.3765 61.4443 34.1656 61.6552C33.9547 61.8661 33.6688 61.9846 33.3706 61.9849H32.6208C32.3226 61.9846 32.0367 61.8661 31.8258 61.6552C31.615 61.4443 31.4964 61.1584 31.4961 60.8602V58.2275C31.4964 58.0337 31.4214 57.8473 31.2869 57.7076C31.1525 57.568 30.9691 57.4859 30.7754 57.4787C28.5502 57.3898 26.4457 56.4433 24.9028 54.8373C23.3599 53.2314 22.4984 51.0906 22.4987 48.8636V48.4887C22.4987 48.2899 22.4197 48.0992 22.2791 47.9586C22.1385 47.8179 21.9478 47.739 21.7489 47.739H20.6243C20.326 47.7387 20.0401 47.6201 19.8293 47.4093C19.6184 47.1984 19.4998 46.9125 19.4996 46.6143V42.8653C19.4998 42.5671 19.6184 42.2812 19.8293 42.0704C20.0401 41.8595 20.326 41.7409 20.6243 41.7407H21.7489C21.9478 41.7407 22.1385 41.6617 22.2791 41.5211C22.4197 41.3804 22.4987 41.1897 22.4987 40.9909V40.616C22.4988 38.8744 23.026 37.1736 24.011 35.7373C24.996 34.301 26.3926 33.1965 28.0171 32.5689C28.1585 32.5146 28.28 32.4187 28.3657 32.2938C28.4513 32.169 28.4971 32.0211 28.497 31.8697V24.5293C30.3094 24.6955 32.016 25.4561 33.3512 26.6928C34.6864 27.9296 35.5753 29.573 35.8796 31.3674C35.9089 31.5423 35.9992 31.7013 36.1346 31.8159C36.27 31.9305 36.4417 31.9934 36.6191 31.9934H38.2442C38.2924 31.9936 38.3404 31.9888 38.3876 31.9794C38.5095 32.2184 38.6425 32.4527 38.7878 32.6795C39.1532 33.2519 39.588 33.777 40.0821 34.2428H36.7447C36.5458 34.2428 36.3551 34.3218 36.2145 34.4624C36.0739 34.603 35.9949 34.7937 35.9949 34.9926C35.9949 35.1914 36.0739 35.3822 36.2145 35.5228C36.3551 35.6634 36.5458 35.7424 36.7447 35.7424H51.7404C51.9392 35.7424 52.1299 35.6634 52.2706 35.5228C52.4112 35.3822 52.4902 35.1914 52.4902 34.9926C52.4902 34.7937 52.4112 34.603 52.2706 34.4624C52.1299 34.3218 51.9392 34.2428 51.7404 34.2428H51.402C51.8962 33.777 52.3309 33.2519 52.6964 32.6795C52.7329 32.6233 52.7676 32.5661 52.8013 32.5089C54.4644 33.1167 55.9013 34.2197 56.9182 35.6693C57.935 37.1188 58.4831 38.8453 58.4884 40.616V48.8636Z" fill="url(#paint2_linear_513_381)"/>
<path d="M49.4911 26.745C49.4903 26.1486 49.253 25.577 48.8314 25.1553C48.4097 24.7337 47.838 24.4964 47.2417 24.4956H47.2351C47.2125 24.3145 47.1244 24.1479 46.9876 24.0271C46.8507 23.9064 46.6744 23.8397 46.4919 23.8397C46.3094 23.8397 46.1331 23.9064 45.9963 24.0271C45.8594 24.1479 45.7714 24.3145 45.7487 24.4956H44.9923C44.9923 24.2968 44.9133 24.1061 44.7727 23.9655C44.6321 23.8248 44.4414 23.7458 44.2425 23.7458C44.0437 23.7458 43.853 23.8248 43.7124 23.9655C43.5717 24.1061 43.4927 24.2968 43.4927 24.4956H42.743C42.5441 24.4956 42.3534 24.5746 42.2128 24.7152C42.0722 24.8558 41.9932 25.0465 41.9932 25.2454C41.9932 25.4443 42.0722 25.635 42.2128 25.7756C42.3534 25.9162 42.5441 25.9952 42.743 25.9952V30.4938C42.5441 30.4938 42.3534 30.5728 42.2128 30.7134C42.0722 30.854 41.9932 31.0448 41.9932 31.2436C41.9932 31.4425 42.0722 31.6332 42.2128 31.7738C42.3534 31.9144 42.5441 31.9934 42.743 31.9934H43.4927C43.4927 32.1922 43.5717 32.3829 43.7124 32.5236C43.853 32.6642 44.0437 32.7432 44.2425 32.7432C44.4414 32.7432 44.6321 32.6642 44.7727 32.5236C44.9133 32.3829 44.9923 32.1922 44.9923 31.9934H45.7421C45.7421 32.1922 45.8211 32.3829 45.9617 32.5236C46.1023 32.6642 46.2931 32.7432 46.4919 32.7432C46.6908 32.7432 46.8815 32.6642 47.0221 32.5236C47.1627 32.3829 47.2417 32.1922 47.2417 31.9934C47.676 31.9937 48.1012 31.8681 48.4657 31.6319C48.8302 31.3957 49.1184 31.0589 49.2956 30.6624C49.4727 30.2658 49.5312 29.8264 49.464 29.3973C49.3967 28.9683 49.2066 28.5678 48.9166 28.2445C49.2868 27.8328 49.4915 27.2986 49.4911 26.745ZM47.2417 30.4938H44.2425V28.9943H47.2417C47.4406 28.9943 47.6313 29.0733 47.7719 29.2139C47.9125 29.3545 47.9915 29.5452 47.9915 29.7441C47.9915 29.9429 47.9125 30.1336 47.7719 30.2742C47.6313 30.4148 47.4406 30.4938 47.2417 30.4938ZM47.2417 27.4947H44.2425V25.9952H47.2417C47.4406 25.9952 47.6313 26.0742 47.7719 26.2148C47.9125 26.3554 47.9915 26.5461 47.9915 26.745C47.9915 26.9438 47.9125 27.1345 47.7719 27.2751C47.6313 27.4157 47.4406 27.4947 47.2417 27.4947Z" fill="url(#paint3_linear_513_381)"/>
<defs>
<linearGradient id="paint0_linear_513_381" x1="64.75" y1="1.68523e-06" x2="14.875" y2="73.5" gradientUnits="userSpaceOnUse">
<stop stop-color="#A2BBFC"/>
<stop offset="1" stop-color="#9AB4F7"/>
</linearGradient>
<linearGradient id="paint1_linear_513_381" x1="29.9966" y1="37.2417" x2="26.7164" y2="37.4805" gradientUnits="userSpaceOnUse">
<stop stop-color="#2F3B49"/>
<stop offset="1" stop-color="#293543"/>
</linearGradient>
<linearGradient id="paint2_linear_513_381" x1="64.4867" y1="20" x2="14.0611" y2="25.886" gradientUnits="userSpaceOnUse">
<stop stop-color="#2F3B49"/>
<stop offset="1" stop-color="#293543"/>
</linearGradient>
<linearGradient id="paint3_linear_513_381" x1="49.4911" y1="23.7459" x2="41.3147" y2="24.4898" gradientUnits="userSpaceOnUse">
<stop stop-color="#2F3B49"/>
<stop offset="1" stop-color="#293543"/>
</linearGradient>
</defs>
</svg>
