<svg width="84" height="84" viewBox="0 0 84 84" fill="none" xmlns="http://www.w3.org/2000/svg">
<circle cx="42" cy="42" r="42" fill="url(#paint0_linear_513_379)"/>
<circle cx="52.5" cy="43.5" r="2.5" fill="#EB5059"/>
<circle cx="56.5" cy="43.5" r="2.5" fill="#EB5059"/>
<circle cx="57.5" cy="45.5" r="2.5" fill="#EB5059"/>
<circle cx="54" cy="47" r="3" fill="#EB5059"/>
<circle cx="56.5" cy="49.5" r="2.5" fill="#EB5059"/>
<circle cx="57.5" cy="53.5" r="2.5" fill="#EB5059"/>
<circle cx="60.5" cy="48.5" r="2.5" fill="#EB5059"/>
<circle cx="60" cy="52" r="3" fill="#EB5059"/>
<path d="M41.5 20C41.1 18.8 43 15.5 44 14C44.5 15 45.6 17.3 46 18.5C46.5 20 44.5 22 44 22C43.5 22 42 21.5 41.5 20Z" fill="#FAD370"/>
<path d="M28.0588 31C27.6272 29.8 29.6772 26.5 30.7562 25C31.2957 26 32.7036 28.2422 32.9141 29.5C33.5 33 31.2957 33 30.7562 33C30.2167 33 28.5983 32.5 28.0588 31Z" fill="#FAD370"/>
<path d="M63.2433 49.8209C63.2856 49.6045 63.3064 49.3965 63.3064 49.1935C63.3064 47.4591 62.0816 46.017 60.4719 45.7104C60.3693 45.1377 60.1342 44.6012 59.7756 44.1435C59.8179 43.927 59.8387 43.7191 59.8387 43.5161C59.8387 41.5595 58.2831 39.9677 56.371 39.9677C55.7565 39.9677 55.1545 40.1416 54.6274 40.456C54.1169 40.1537 53.5337 39.9677 52.9032 39.9677C52.666 39.9677 52.4337 39.9926 52.2097 40.0394V27.9032C52.2097 25.7039 48.4784 24.4961 44.5806 24.3676V22.8638C46.1612 22.5338 47.3548 21.101 47.3548 19.3871V19.2601C47.3548 18.7768 47.2605 18.3063 47.0746 17.862L45.4913 14.0815C45.2159 13.4251 44.5862 13 43.8871 13C43.188 13 42.5583 13.4251 42.2829 14.0815L40.6995 17.862C40.5137 18.3063 40.4194 18.7768 40.4194 19.2601V19.3871C40.4194 21.1003 41.613 22.5338 43.1935 22.8638V24.3676C39.2958 24.4961 35.5645 25.7039 35.5645 27.9032V36.3314C34.3293 35.9772 32.8805 35.7714 31.4032 35.7225V34.2186C32.9838 33.8886 34.1774 32.4558 34.1774 30.7419V30.6149C34.1774 30.1316 34.0831 29.6611 33.8972 29.2168L32.3139 25.4364C32.0385 24.7799 31.4088 24.3548 30.7097 24.3548C30.0106 24.3548 29.3808 24.7799 29.1055 25.4364L27.5221 29.2168C27.3363 29.6611 27.2419 30.1316 27.2419 30.6149V30.7419C27.2419 32.4551 28.4355 33.8886 30.0161 34.2186V35.7225C26.1794 35.8488 22.5119 37.0233 22.3982 39.158L22.394 39.1573L21.0721 48.6272C21.0243 48.9693 21 49.3177 21 49.6648C21 53.7092 24.216 57 28.1685 57H33.2501C35.8482 57 38.1202 55.5743 39.3783 53.4516H48.9243C48.3744 54.2571 48.0484 55.235 48.0484 56.2903V57H52.9032C53.7001 57 54.4706 56.7928 55.167 56.4152C55.7128 56.7828 56.3633 57 57.0645 57C58.2234 57 59.245 56.4103 59.8748 55.5139C60.0905 55.5558 60.3096 55.5806 60.5323 55.5806C62.4444 55.5806 64 53.9888 64 52.0323C64 51.219 63.7337 50.4475 63.2433 49.8209ZM58.4516 50.6129C58.8338 50.6129 59.1452 50.9315 59.1452 51.3226C59.1452 51.7136 58.8338 52.0323 58.4516 52.0323C58.0695 52.0323 57.7581 51.7136 57.7581 51.3226C57.7581 50.9315 58.0695 50.6129 58.4516 50.6129ZM56.8981 49.9203C56.1428 49.9579 55.4569 50.2425 54.9034 50.6988C54.515 50.3042 54.2903 49.7712 54.2903 49.1935C54.2903 48.0197 55.2238 47.0645 56.371 47.0645C57.5181 47.0645 58.4516 48.0197 58.4516 49.1935C57.8316 49.1935 57.2795 49.4781 56.8981 49.9203ZM50.4231 46.3548C50.2358 46.7906 50.129 47.2689 50.129 47.7742C50.129 48.2277 50.2206 48.6585 50.3725 49.058C50.0701 49.1446 49.758 49.1935 49.4355 49.1935H46.0378C46.3596 47.5762 47.7613 46.3548 49.4355 46.3548H50.4231ZM51.5161 47.7742C51.5161 46.8502 52.1133 46.0653 52.9136 45.7708C52.9455 46.3073 53.1702 46.8026 53.5323 47.166C53.1383 47.7423 52.9032 48.4392 52.9032 49.1935C52.9032 49.3958 52.9261 49.5945 52.9594 49.7904C52.1251 49.5129 51.5161 48.7195 51.5161 47.7742ZM54.2903 45.6452C54.2903 45.2541 54.6017 44.9355 54.9839 44.9355C55.366 44.9355 55.6774 45.2541 55.6774 45.6452C55.6774 45.6707 55.6705 45.6941 55.6684 45.719C55.2634 45.8048 54.8889 45.9716 54.5483 46.1881C54.3916 46.0561 54.2903 45.8609 54.2903 45.6452ZM58.4516 43.5161C58.4516 43.7014 58.419 43.8965 58.3497 44.1307L58.2283 44.5409L58.5265 44.8418C58.7804 45.098 58.9517 45.4117 59.0501 45.7509C58.7152 45.8318 58.3927 45.956 58.0951 46.1334C57.7747 45.9439 57.43 45.7935 57.0555 45.7161C57.0562 45.692 57.0645 45.6693 57.0645 45.6452C57.0645 45.0001 56.7767 44.4288 56.3328 44.0377C56.3578 43.8653 56.371 43.6914 56.371 43.5161C56.371 42.7617 56.1359 42.0655 55.7426 41.49C55.9437 41.4247 56.1539 41.3871 56.371 41.3871C57.5181 41.3871 58.4516 42.3423 58.4516 43.5161ZM54.9839 43.5161C54.3638 43.5161 53.8118 43.8007 53.4303 44.2428C52.675 44.2804 51.9891 44.565 51.4357 45.0214C51.0473 44.6268 50.8226 44.0938 50.8226 43.5161C50.8226 42.3423 51.7561 41.3871 52.9032 41.3871C54.0504 41.3871 54.9839 42.3423 54.9839 43.5161ZM41.8065 19.3871V19.2601C41.8065 18.9698 41.8633 18.6881 41.9743 18.4212L43.5577 14.6415C43.6707 14.3711 44.1035 14.3718 44.2165 14.6415L45.7999 18.4212C45.9109 18.6881 45.9677 18.9698 45.9677 19.2601V19.3871C45.9677 20.3111 45.3859 21.0917 44.5806 21.3855V18.6774H43.1935V21.3855C42.3883 21.0917 41.8065 20.3111 41.8065 19.3871ZM43.1935 25.7877V28.6129H44.5806V25.7877C48.3598 25.9197 50.8226 27.1041 50.8226 27.9032C50.8226 28.7506 48.0567 30.0323 43.8871 30.0323C39.7175 30.0323 36.9516 28.7506 36.9516 27.9032C36.9516 27.1034 39.4144 25.919 43.1935 25.7877ZM28.629 30.7419V30.6149C28.629 30.3246 28.6859 30.0429 28.7969 29.7761L30.3802 25.9963C30.4933 25.7259 30.9261 25.7266 31.0391 25.9963L32.6225 29.7761C32.7335 30.0429 32.7903 30.3246 32.7903 30.6149V30.7419C32.7903 31.6659 32.2084 32.4466 31.4032 32.7404V30.0323H30.0161V32.7404C29.2109 32.4466 28.629 31.6659 28.629 30.7419ZM30.0161 37.1425V39.9677H31.4032V37.1425C35.1824 37.2745 37.6452 38.459 37.6452 39.2581C37.6452 40.1054 34.8793 41.3871 30.7097 41.3871C26.5401 41.3871 23.7742 40.1054 23.7742 39.2581C23.7742 38.4583 26.237 37.2738 30.0161 37.1425ZM33.2508 55.5806H28.1692C24.981 55.5806 22.3871 52.9265 22.3871 49.6648C22.3871 49.3852 22.4065 49.1034 22.4447 48.8281L23.5183 41.1359C25.0413 42.2373 27.8862 42.8064 30.7097 42.8064C33.5331 42.8064 36.378 42.2373 37.9004 41.1359L38.974 48.8281C39.0128 49.1034 39.0323 49.3852 39.0323 49.6648C39.0323 52.9265 36.4384 55.5806 33.2508 55.5806ZM40.3472 48.6272L39.0253 39.1573L39.0212 39.158C38.9691 38.1786 38.1743 37.4001 36.9516 36.8338V29.9478C38.5225 30.9385 41.2121 31.4516 43.8871 31.4516C46.5621 31.4516 49.2517 30.9385 50.8226 29.9478V40.6952C49.9855 41.3438 49.4355 42.3615 49.4355 43.5154C49.4355 44.0108 49.5423 44.4919 49.733 44.9348H49.4355C46.7584 44.9348 44.5806 47.1632 44.5806 49.9025V50.6122H49.4355C50.0229 50.6122 50.6083 50.5008 51.1555 50.2893C51.7825 50.9273 52.6452 51.3226 53.5968 51.3226H53.6002H53.5968H52.9032C51.9933 51.3226 51.1444 51.5844 50.4155 52.0323H40.0289C40.2779 51.2885 40.4194 50.4937 40.4194 49.6648C40.4194 49.3177 40.3951 48.9693 40.3472 48.6272ZM49.5055 55.5806C49.8273 53.9633 51.229 52.7419 52.9032 52.7419H53.6668C53.621 52.9712 53.5968 53.2089 53.5968 53.4516C53.5968 54.1464 53.8 54.7908 54.1391 55.3386C53.7466 55.4919 53.3311 55.5806 52.9032 55.5806H49.5055ZM57.0645 55.5806C55.9174 55.5806 54.9839 54.6254 54.9839 53.4516C54.9839 52.5262 55.5817 51.7399 56.3835 51.4468C56.4473 52.5617 57.3461 53.4516 58.4516 53.4516C58.6909 53.4516 58.917 53.4019 59.1313 53.3253C59.1334 53.3679 59.1452 53.4083 59.1452 53.4516C59.1452 54.6254 58.2116 55.5806 57.0645 55.5806ZM60.5323 54.1613C60.5087 54.1613 60.4865 54.1556 60.4629 54.1549C60.508 53.9278 60.5323 53.6922 60.5323 53.4516C60.5323 53.0315 60.4615 52.6241 60.3228 52.2366C60.4532 51.9585 60.5323 51.6512 60.5323 51.3226C60.5323 50.6775 60.2444 50.1062 59.8006 49.7152C59.8255 49.5427 59.8387 49.3688 59.8387 49.1935C59.8387 48.4392 59.6036 47.743 59.2104 47.1674C59.4115 47.1021 59.6216 47.0645 59.8387 47.0645C60.9858 47.0645 61.9194 48.0197 61.9194 49.1935C61.9194 49.3788 61.8868 49.5739 61.8174 49.8081L61.696 50.2183L61.9943 50.5192C62.393 50.923 62.6129 51.4603 62.6129 52.0323C62.6129 53.2061 61.6794 54.1613 60.5323 54.1613Z" fill="url(#paint1_linear_513_379)"/>
<defs>
<linearGradient id="paint0_linear_513_379" x1="64.75" y1="1.68523e-06" x2="14.875" y2="73.5" gradientUnits="userSpaceOnUse">
<stop stop-color="#A2BBFC"/>
<stop offset="1" stop-color="#9AB4F7"/>
</linearGradient>
<linearGradient id="paint1_linear_513_379" x1="64" y1="13" x2="17.2532" y2="17.9882" gradientUnits="userSpaceOnUse">
<stop stop-color="#2F3B49"/>
<stop offset="1" stop-color="#293543"/>
</linearGradient>
</defs>
</svg>
