<svg width="28" height="23" viewBox="0 0 28 23" fill="none" xmlns="http://www.w3.org/2000/svg">
<rect width="28" height="22.9229" fill="white"/>
<path d="M14.3497 22.1487C14.2107 22.2298 14.0938 22.2968 14.0017 22.3491C13.9095 22.296 13.7923 22.2279 13.6528 22.1455C13.2746 21.9221 12.7331 21.5939 12.0827 21.1763C10.781 20.3403 9.04812 19.149 7.31767 17.7254C5.58476 16.2998 3.86924 14.6534 2.59074 12.9095C1.30814 11.1601 0.5 9.35985 0.5 7.61625C0.5 3.68621 3.68592 0.50023 7.61602 0.500245L7.61992 0.500215C10.024 0.481467 12.2715 1.69064 13.5807 3.70713L13.9976 4.34934L14.4179 3.70937C15.7368 1.70147 17.9798 0.494624 20.3822 0.500227C24.3049 0.519657 27.4803 3.69475 27.5 7.6175C27.4996 9.39013 26.6903 11.2044 25.4088 12.9573C24.1307 14.7058 22.4158 16.3484 20.6833 17.7667C18.9533 19.183 17.2207 20.3636 15.9193 21.1907C15.2691 21.604 14.7277 21.9282 14.3497 22.1487Z" stroke="url(#paint0_linear_23_49)"/>
<defs>
<linearGradient id="paint0_linear_23_49" x1="28" y1="6.10517e-06" x2="-2.24829" y2="4.03426" gradientUnits="userSpaceOnUse">
<stop stop-color="#2F3B49"/>
<stop offset="1" stop-color="#293543"/>
</linearGradient>
</defs>
</svg>
