<svg width="23" height="23" viewBox="0 0 23 23" fill="none" xmlns="http://www.w3.org/2000/svg">
<path d="M16.4199 0.181885H6.03466C2.66648 0.181885 0 2.84836 0 6.21654V16.4614C0 19.97 2.66648 22.6364 6.03466 22.6364H16.2795C19.6477 22.6364 22.3142 19.97 22.3142 16.6018V6.21654C22.4545 2.84836 19.7881 0.181885 16.4199 0.181885ZM11.2273 17.5842C7.85909 17.5842 5.05227 14.7773 5.05227 11.4092C5.05227 8.04098 7.85909 5.23416 11.2273 5.23416C14.5955 5.23416 17.4023 8.04098 17.4023 11.4092C17.4023 14.7773 14.5955 17.5842 11.2273 17.5842ZM17.5426 6.77791C16.5602 6.77791 15.7182 5.93586 15.7182 4.95348C15.7182 3.97109 16.5602 3.12904 17.5426 3.12904C18.525 3.12904 19.367 3.97109 19.367 4.95348C19.367 5.93586 18.525 6.77791 17.5426 6.77791Z" fill="url(#paint0_linear_278_448)"/>
<path d="M11.2282 7.27274C8.91666 7.27274 7.0918 9.0976 7.0918 11.4091C7.0918 13.7206 8.91666 15.5455 11.2282 15.5455C13.5397 15.5455 15.3645 13.7206 15.3645 11.4091C15.3645 9.0976 13.5397 7.27274 11.2282 7.27274Z" fill="url(#paint1_linear_278_448)"/>
<defs>
<linearGradient id="paint0_linear_278_448" x1="1.49857" y1="21.1735" x2="22.2859" y2="3.28703" gradientUnits="userSpaceOnUse">
<stop stop-color="#FFDD55"/>
<stop offset="0.5" stop-color="#FF543E"/>
<stop offset="1" stop-color="#C837AB"/>
</linearGradient>
<linearGradient id="paint1_linear_278_448" x1="7.64724" y1="15.0065" x2="15.3125" y2="8.37101" gradientUnits="userSpaceOnUse">
<stop stop-color="#FFDD55"/>
<stop offset="0.5" stop-color="#FF543E"/>
<stop offset="1" stop-color="#C837AB"/>
</linearGradient>
</defs>
</svg>
