<svg width="19" height="19" viewBox="0 0 19 19" fill="none" xmlns="http://www.w3.org/2000/svg">
<path d="M13.8938 0H5.10625C2.25625 0 0 2.25625 0 5.10625V13.775C0 16.7437 2.25625 19 5.10625 19H13.775C16.625 19 18.8813 16.7437 18.8813 13.8938V5.10625C19 2.25625 16.7437 0 13.8938 0ZM9.5 14.725C6.65 14.725 4.275 12.35 4.275 9.5C4.275 6.65 6.65 4.275 9.5 4.275C12.35 4.275 14.725 6.65 14.725 9.5C14.725 12.35 12.35 14.725 9.5 14.725ZM14.8438 5.58125C14.0125 5.58125 13.3 4.86875 13.3 4.0375C13.3 3.20625 14.0125 2.49375 14.8438 2.49375C15.675 2.49375 16.3875 3.20625 16.3875 4.0375C16.3875 4.86875 15.675 5.58125 14.8438 5.58125Z" fill="url(#paint0_linear_66_158)"/>
<path d="M9.5 6C7.54412 6 6 7.54412 6 9.5C6 11.4559 7.54412 13 9.5 13C11.4559 13 13 11.4559 13 9.5C13 7.54412 11.4559 6 9.5 6Z" fill="url(#paint1_linear_66_158)"/>
<defs>
<linearGradient id="paint0_linear_66_158" x1="18.8857" y1="5.06036e-06" x2="-1.63762" y2="2.22743" gradientUnits="userSpaceOnUse">
<stop stop-color="#2F3B49"/>
<stop offset="1" stop-color="#293543"/>
</linearGradient>
<linearGradient id="paint1_linear_66_158" x1="13" y1="6" x2="5.39409" y2="6.83047" gradientUnits="userSpaceOnUse">
<stop stop-color="#2F3B49"/>
<stop offset="1" stop-color="#293543"/>
</linearGradient>
</defs>
</svg>
