<svg width="44" height="17" viewBox="0 0 44 17" fill="none" xmlns="http://www.w3.org/2000/svg">
<path d="M21.0442 9.394L19.0422 11.424V14H18.0062V4.2H19.0422V10.122L24.7962 4.2H25.9862L21.7442 8.638L26.2802 14H25.0482L21.0442 9.394ZM27.7493 3.612H28.7433V14H27.7493V3.612ZM34.085 6.58C35.0464 6.58 35.7837 6.82267 36.297 7.308C36.8104 7.784 37.067 8.49333 37.067 9.436V14H36.115V12.852C35.891 13.2347 35.5597 13.5333 35.121 13.748C34.6917 13.9627 34.1784 14.07 33.581 14.07C32.7597 14.07 32.1064 13.874 31.621 13.482C31.1357 13.09 30.893 12.572 30.893 11.928C30.893 11.3027 31.117 10.7987 31.565 10.416C32.0224 10.0333 32.7457 9.842 33.735 9.842H36.073V9.394C36.073 8.75933 35.8957 8.27867 35.541 7.952C35.1864 7.616 34.6684 7.448 33.987 7.448C33.5204 7.448 33.0724 7.52733 32.643 7.686C32.2137 7.83533 31.845 8.04533 31.537 8.316L31.089 7.574C31.4624 7.25667 31.9104 7.014 32.433 6.846C32.9557 6.66867 33.5064 6.58 34.085 6.58ZM33.735 13.286C34.295 13.286 34.7757 13.16 35.177 12.908C35.5784 12.6467 35.877 12.2733 36.073 11.788V10.584H33.763C32.503 10.584 31.873 11.0227 31.873 11.9C31.873 12.3293 32.0364 12.67 32.363 12.922C32.6897 13.1647 33.147 13.286 33.735 13.286ZM40.7189 8.078C40.9522 7.58333 41.2975 7.21 41.7549 6.958C42.2215 6.706 42.7955 6.58 43.4769 6.58V7.546L43.2389 7.532C42.4642 7.532 41.8575 7.77 41.4189 8.246C40.9802 8.722 40.7609 9.38933 40.7609 10.248V14H39.7669V6.636H40.7189V8.078Z" fill="#6B737C"/>
<path d="M1 6L7.8 12.8" stroke="#6B737C" stroke-linecap="round"/>
<path d="M8 6L1.2 12.8" stroke="#6B737C" stroke-linecap="round"/>
</svg>
