<svg width="30" height="30" viewBox="0 0 30 30" fill="none" xmlns="http://www.w3.org/2000/svg">
<path d="M29.375 6.25006H0.62502C0.28002 6.25006 0 6.53002 0 6.87502V25.625C0 28.0376 1.96248 30 4.37502 30H25.625C28.0375 30 30 28.0376 30 25.625V6.87502C30 6.53002 29.72 6.25006 29.375 6.25006ZM28.75 25.625C28.75 27.3488 27.3488 28.75 25.625 28.75H4.37502C2.65125 28.75 1.25004 27.3487 1.25004 25.625V7.50004H28.75V25.625Z" fill="url(#paint0_linear_80_431)"/>
<path d="M15 0C11.5538 0 8.75 2.80377 8.75 6.25002V10.625C8.75 10.97 9.03002 11.2501 9.37502 11.2501C9.72002 11.2501 10 10.97 10 10.625V6.25002C10 3.49254 12.2425 1.25004 15 1.25004C17.7575 1.25004 20 3.49254 20 6.25002V10.625C20 10.97 20.28 11.2501 20.625 11.2501C20.97 11.2501 21.25 10.97 21.25 10.625V6.25002C21.25 2.80377 18.4463 0 15 0Z" fill="url(#paint1_linear_80_431)"/>
<path d="M9.375 10.0001C8.34123 10.0001 7.5 10.8413 7.5 11.8751C7.5 12.9088 8.34123 13.7501 9.375 13.7501C10.4088 13.7501 11.25 12.9088 11.25 11.8751C11.25 10.8413 10.4088 10.0001 9.375 10.0001ZM9.375 12.5C9.03123 12.5 8.74998 12.2188 8.74998 11.875C8.74998 11.5312 9.03123 11.25 9.375 11.25C9.71877 11.25 10 11.5312 10 11.875C10 12.2188 9.71877 12.5 9.375 12.5Z" fill="url(#paint2_linear_80_431)"/>
<path d="M20.625 10.0001C19.5912 10.0001 18.75 10.8413 18.75 11.8751C18.75 12.9088 19.5912 13.7501 20.625 13.7501C21.6588 13.7501 22.5 12.9088 22.5 11.8751C22.5 10.8413 21.6588 10.0001 20.625 10.0001ZM20.625 12.5C20.2812 12.5 20 12.2188 20 11.875C20 11.5312 20.2812 11.25 20.625 11.25C20.9688 11.25 21.25 11.5312 21.25 11.875C21.25 12.2188 20.9688 12.5 20.625 12.5Z" fill="url(#paint3_linear_80_431)"/>
<defs>
<linearGradient id="paint0_linear_80_431" x1="30" y1="6.25007" x2="-2.36962" y2="10.7145" gradientUnits="userSpaceOnUse">
<stop stop-color="#2F3B49"/>
<stop offset="1" stop-color="#293543"/>
</linearGradient>
<linearGradient id="paint1_linear_80_431" x1="21.25" y1="2.99628e-06" x2="7.70545" y2="1.64323" gradientUnits="userSpaceOnUse">
<stop stop-color="#2F3B49"/>
<stop offset="1" stop-color="#293543"/>
</linearGradient>
<linearGradient id="paint2_linear_80_431" x1="11.25" y1="10.0001" x2="7.17541" y2="10.445" gradientUnits="userSpaceOnUse">
<stop stop-color="#2F3B49"/>
<stop offset="1" stop-color="#293543"/>
</linearGradient>
<linearGradient id="paint3_linear_80_431" x1="22.5" y1="10.0001" x2="18.4254" y2="10.445" gradientUnits="userSpaceOnUse">
<stop stop-color="#2F3B49"/>
<stop offset="1" stop-color="#293543"/>
</linearGradient>
</defs>
</svg>
