<svg width="51" height="17" viewBox="0 0 51 17" fill="none" xmlns="http://www.w3.org/2000/svg">
<path d="M30.4567 13.104V14H23.5267V4.2H30.2467V5.096H24.5627V8.582H29.6307V9.464H24.5627V13.104H30.4567ZM39.2925 3.612V14H38.3405V12.544C38.0419 13.0387 37.6452 13.4167 37.1505 13.678C36.6652 13.9393 36.1145 14.07 35.4985 14.07C34.8079 14.07 34.1825 13.9113 33.6225 13.594C33.0625 13.2767 32.6239 12.8333 32.3065 12.264C31.9892 11.6947 31.8305 11.046 31.8305 10.318C31.8305 9.59 31.9892 8.94133 32.3065 8.372C32.6239 7.80267 33.0625 7.364 33.6225 7.056C34.1825 6.73867 34.8079 6.58 35.4985 6.58C36.0959 6.58 36.6325 6.706 37.1085 6.958C37.5939 7.20067 37.9905 7.56 38.2985 8.036V3.612H39.2925ZM35.5825 13.188C36.0959 13.188 36.5579 13.0713 36.9685 12.838C37.3885 12.5953 37.7152 12.2547 37.9485 11.816C38.1912 11.3773 38.3125 10.878 38.3125 10.318C38.3125 9.758 38.1912 9.25867 37.9485 8.82C37.7152 8.38133 37.3885 8.04533 36.9685 7.812C36.5579 7.56933 36.0959 7.448 35.5825 7.448C35.0599 7.448 34.5885 7.56933 34.1685 7.812C33.7579 8.04533 33.4312 8.38133 33.1885 8.82C32.9552 9.25867 32.8385 9.758 32.8385 10.318C32.8385 10.878 32.9552 11.3773 33.1885 11.816C33.4312 12.2547 33.7579 12.5953 34.1685 12.838C34.5885 13.0713 35.0599 13.188 35.5825 13.188ZM42.0608 6.636H43.0548V14H42.0608V6.636ZM42.5648 5.026C42.3595 5.026 42.1868 4.956 42.0468 4.816C41.9068 4.676 41.8368 4.508 41.8368 4.312C41.8368 4.12533 41.9068 3.962 42.0468 3.822C42.1868 3.682 42.3595 3.612 42.5648 3.612C42.7701 3.612 42.9428 3.682 43.0828 3.822C43.2228 3.95267 43.2928 4.11133 43.2928 4.298C43.2928 4.50333 43.2228 4.676 43.0828 4.816C42.9428 4.956 42.7701 5.026 42.5648 5.026ZM49.6986 13.552C49.5119 13.72 49.2786 13.8507 48.9986 13.944C48.7279 14.028 48.4432 14.07 48.1446 14.07C47.4539 14.07 46.9219 13.8833 46.5486 13.51C46.1752 13.1367 45.9886 12.6093 45.9886 11.928V7.476H44.6726V6.636H45.9886V5.026H46.9826V6.636H49.2226V7.476H46.9826V11.872C46.9826 12.3107 47.0899 12.6467 47.3046 12.88C47.5286 13.104 47.8459 13.216 48.2566 13.216C48.4619 13.216 48.6579 13.1833 48.8446 13.118C49.0406 13.0527 49.2086 12.9593 49.3486 12.838L49.6986 13.552Z" fill="#6B737C"/>
<path d="M1.26312 13.6H1.35502L5.7888 12.6351C5.87516 12.6208 5.95518 12.5807 6.0185 12.5203L13.5306 5.00815C14.0793 4.46057 14.3855 3.71579 14.3806 2.94061C14.3816 2.15942 14.0764 1.40896 13.5306 0.850079C12.9831 0.301315 12.2383 -0.00485796 11.463 0.000110809C10.6829 -0.00679271 9.9346 0.309142 9.39551 0.873076L1.90634 8.38516C1.84029 8.43832 1.79214 8.51048 1.76849 8.59191L0.803666 13.0257C0.777327 13.1849 0.82851 13.347 0.941516 13.4622C1.02634 13.5487 1.14194 13.5983 1.26312 13.6ZM11.463 0.919026C12.5669 0.918938 13.4617 1.81371 13.4618 2.91753C13.4618 2.92522 13.4618 2.93292 13.4617 2.94061C13.4692 3.46647 13.2617 3.97262 12.8874 4.34194L10.0617 1.49329C10.434 1.12336 10.9382 0.916696 11.463 0.919026ZM9.41846 2.15955L12.2441 4.9852L5.69685 11.5095L2.8712 8.70677L9.41846 2.15955ZM2.50365 9.62572L4.77794 11.9L1.86039 12.5433L2.50365 9.62572Z" fill="#6B737C"/>
<path d="M15.8513 16.0811H0.459458C0.205699 16.0811 0 16.2868 0 16.5406C0 16.7943 0.205699 17 0.459458 17H15.8513C16.105 17 16.3107 16.7943 16.3107 16.5406C16.3107 16.2868 16.105 16.0811 15.8513 16.0811Z" fill="#6B737C"/>
</svg>
