<svg width="23" height="23" viewBox="0 0 23 23" fill="none" xmlns="http://www.w3.org/2000/svg">
<path d="M0.440829 2.22114C0.144047 2.36507 -0.0313242 2.67991 0.00464936 3.00825L14.7485 16.7681C15.1386 16.8185 15.5433 16.6902 15.8289 16.3987L17.6031 14.6242C17.701 14.5262 17.848 14.5099 17.9619 14.5804C17.9625 14.5808 17.9631 14.5811 17.9636 14.5815L22.357 17.4078L22.357 17.4078L22.363 17.4116C22.4909 17.4913 22.5359 17.6552 22.4692 17.787L22.466 17.7934L22.4629 17.7998L20.324 22.3438C20.274 22.4451 20.1629 22.51 20.0376 22.4987C17.839 22.2672 12.4073 21.3094 7.04933 15.9501C1.68915 10.5887 0.732925 5.14896 0.501898 2.95587L0.501902 2.95587L0.501675 2.95379C0.488945 2.83761 0.550538 2.72464 0.657072 2.67198M0.440829 2.22114L0.653834 2.6735L0.657072 2.67198M0.440829 2.22114L4.978 0.0847076L0.440829 2.22114ZM0.657072 2.67198L5.191 0.537067L5.19106 0.537194L5.20164 0.5319C5.34067 0.462373 5.50468 0.510714 5.5834 0.637024L5.58335 0.637053L5.58737 0.64329L8.41776 5.03818M0.657072 2.67198L8.41776 5.03818M8.41776 5.03818C8.48701 5.15182 8.4696 5.3034 8.37464 5.39837L6.59845 7.17499L6.59842 7.17496L6.59389 7.17961C6.32127 7.45947 6.17964 7.85239 6.23123 8.25292C6.35387 9.21471 6.8836 11.5226 9.17955 13.8191C11.4749 16.1149 13.7861 16.6451 14.748 16.768L8.41776 5.03818Z" stroke="url(#paint0_linear_278_1348)"/>
<defs>
<linearGradient id="paint0_linear_278_1348" x1="23" y1="6.1257e-06" x2="-1.99084" y2="2.7287" gradientUnits="userSpaceOnUse">
<stop stop-color="#2F3B49"/>
<stop offset="1" stop-color="#293543"/>
</linearGradient>
</defs>
</svg>
