<svg width="22" height="39" viewBox="0 0 22 39" fill="none" xmlns="http://www.w3.org/2000/svg">
<circle cx="10.9175" cy="9.91752" r="9.91752" fill="#FAD370"/>
<path d="M13.1806 14H8.48822V13.3018L10.3681 11.4121C10.941 10.8327 11.3186 10.4193 11.5009 10.1719C11.6832 9.92448 11.8199 9.68359 11.9111 9.44922C12.0022 9.21484 12.0478 8.96257 12.0478 8.69238C12.0478 8.31152 11.9322 8.01042 11.7011 7.78906C11.47 7.56445 11.1494 7.45215 10.7392 7.45215C10.443 7.45215 10.1614 7.50098 9.89447 7.59863C9.6308 7.69629 9.3362 7.8737 9.01068 8.13086L8.58099 7.5791C9.23855 7.03223 9.95469 6.75879 10.7294 6.75879C11.4 6.75879 11.9257 6.93132 12.3066 7.27637C12.6874 7.61816 12.8779 8.07878 12.8779 8.6582C12.8779 9.11068 12.7509 9.55827 12.497 10.001C12.2431 10.4437 11.7678 11.0036 11.0712 11.6807L9.50873 13.209V13.248H13.1806V14Z" fill="#0E0A13"/>
<path d="M21.2989 21.5325H0.453182C0.203034 21.5325 0 21.7355 0 21.9856V35.5807C0 37.3299 1.42293 38.7529 3.17219 38.7529H18.5799C20.3291 38.7529 21.7521 37.3299 21.7521 35.5807V21.9856C21.7521 21.7355 21.549 21.5325 21.2989 21.5325ZM20.8458 35.5807C20.8458 36.8305 19.8297 37.8465 18.5799 37.8465H3.17219C1.92234 37.8465 0.906365 36.8305 0.906365 35.5807V22.4388H20.8458V35.5807V35.5807Z" fill="url(#paint0_linear_80_395)"/>
<path d="M10.8761 17C8.37729 17 6.34436 19.0329 6.34436 21.5317V24.7039C6.34436 24.954 6.54739 25.1571 6.79754 25.1571C7.04769 25.1571 7.25073 24.954 7.25073 24.7039V21.5317C7.25073 19.5323 8.87669 17.9064 10.8761 17.9064C12.8754 17.9064 14.5014 19.5323 14.5014 21.5317V24.7039C14.5014 24.954 14.7044 25.1571 14.9546 25.1571C15.2047 25.1571 15.4078 24.954 15.4078 24.7039V21.5317C15.4078 19.0329 13.3748 17 10.8761 17Z" fill="url(#paint1_linear_80_395)"/>
<path d="M6.79749 24.2506C6.04794 24.2506 5.43799 24.8606 5.43799 25.6101C5.43799 26.3597 6.04794 26.9696 6.79749 26.9696C7.54705 26.9696 8.157 26.3597 8.157 25.6101C8.157 24.8606 7.54705 24.2506 6.79749 24.2506ZM6.79749 26.0633C6.54824 26.0633 6.34431 25.8593 6.34431 25.6101C6.34431 25.3608 6.54824 25.1569 6.79749 25.1569C7.04675 25.1569 7.25068 25.3608 7.25068 25.6101C7.25068 25.8593 7.04675 26.0633 6.79749 26.0633Z" fill="url(#paint2_linear_80_395)"/>
<path d="M14.9546 24.2506C14.205 24.2506 13.5951 24.8606 13.5951 25.6101C13.5951 26.3597 14.205 26.9696 14.9546 26.9696C15.7042 26.9696 16.3141 26.3597 16.3141 25.6101C16.3141 24.8606 15.7042 24.2506 14.9546 24.2506ZM14.9546 26.0633C14.7053 26.0633 14.5014 25.8593 14.5014 25.6101C14.5014 25.3608 14.7053 25.1569 14.9546 25.1569C15.2039 25.1569 15.4078 25.3608 15.4078 25.6101C15.4078 25.8593 15.2039 26.0633 14.9546 26.0633Z" fill="url(#paint3_linear_80_395)"/>
<defs>
<linearGradient id="paint0_linear_80_395" x1="21.7521" y1="21.5325" x2="-1.71814" y2="24.7695" gradientUnits="userSpaceOnUse">
<stop stop-color="#2F3B49"/>
<stop offset="1" stop-color="#293543"/>
</linearGradient>
<linearGradient id="paint1_linear_80_395" x1="15.4078" y1="17" x2="5.58699" y2="18.1915" gradientUnits="userSpaceOnUse">
<stop stop-color="#2F3B49"/>
<stop offset="1" stop-color="#293543"/>
</linearGradient>
<linearGradient id="paint2_linear_80_395" x1="8.157" y1="24.2506" x2="5.20264" y2="24.5732" gradientUnits="userSpaceOnUse">
<stop stop-color="#2F3B49"/>
<stop offset="1" stop-color="#293543"/>
</linearGradient>
<linearGradient id="paint3_linear_80_395" x1="16.3141" y1="24.2506" x2="13.3597" y2="24.5732" gradientUnits="userSpaceOnUse">
<stop stop-color="#2F3B49"/>
<stop offset="1" stop-color="#293543"/>
</linearGradient>
</defs>
</svg>
