<svg width="22" height="22" viewBox="0 0 22 22" fill="none" xmlns="http://www.w3.org/2000/svg">
<path d="M21.2989 4.53247H0.453182C0.203034 4.53247 0 4.73546 0 4.98561V18.5807C0 20.3299 1.42293 21.7529 3.17219 21.7529H18.5799C20.3291 21.7529 21.7521 20.3299 21.7521 18.5807V4.98561C21.7521 4.73546 21.549 4.53247 21.2989 4.53247ZM20.8458 18.5807C20.8458 19.8305 19.8297 20.8465 18.5799 20.8465H3.17219C1.92234 20.8465 0.906365 19.8305 0.906365 18.5807V5.43879H20.8458V18.5807V18.5807Z" fill="url(#paint0_linear_80_399)"/>
<path d="M10.8761 0C8.37729 0 6.34436 2.03293 6.34436 4.5317V7.70389C6.34436 7.95404 6.54739 8.15708 6.79754 8.15708C7.04769 8.15708 7.25073 7.95404 7.25073 7.70389V4.5317C7.25073 2.53233 8.87669 0.906365 10.8761 0.906365C12.8754 0.906365 14.5014 2.53233 14.5014 4.5317V7.70389C14.5014 7.95404 14.7044 8.15708 14.9546 8.15708C15.2047 8.15708 15.4078 7.95404 15.4078 7.70389V4.5317C15.4078 2.03293 13.3748 0 10.8761 0Z" fill="url(#paint1_linear_80_399)"/>
<path d="M6.79749 7.25061C6.04794 7.25061 5.43799 7.86056 5.43799 8.61012C5.43799 9.35967 6.04794 9.96962 6.79749 9.96962C7.54705 9.96962 8.157 9.35967 8.157 8.61012C8.157 7.86056 7.54705 7.25061 6.79749 7.25061ZM6.79749 9.06326C6.54824 9.06326 6.34431 8.85933 6.34431 8.61007C6.34431 8.36082 6.54824 8.15689 6.79749 8.15689C7.04675 8.15689 7.25068 8.36082 7.25068 8.61007C7.25068 8.85933 7.04675 9.06326 6.79749 9.06326Z" fill="url(#paint2_linear_80_399)"/>
<path d="M14.9546 7.25061C14.205 7.25061 13.5951 7.86056 13.5951 8.61012C13.5951 9.35967 14.205 9.96962 14.9546 9.96962C15.7042 9.96962 16.3141 9.35967 16.3141 8.61012C16.3141 7.86056 15.7042 7.25061 14.9546 7.25061ZM14.9546 9.06326C14.7053 9.06326 14.5014 8.85933 14.5014 8.61007C14.5014 8.36082 14.7053 8.15689 14.9546 8.15689C15.2039 8.15689 15.4078 8.36082 15.4078 8.61007C15.4078 8.85933 15.2039 9.06326 14.9546 9.06326Z" fill="url(#paint3_linear_80_399)"/>
<defs>
<linearGradient id="paint0_linear_80_399" x1="21.7521" y1="4.53248" x2="-1.71814" y2="7.76952" gradientUnits="userSpaceOnUse">
<stop stop-color="#2F3B49"/>
<stop offset="1" stop-color="#293543"/>
</linearGradient>
<linearGradient id="paint1_linear_80_399" x1="15.4078" y1="2.17251e-06" x2="5.58699" y2="1.19145" gradientUnits="userSpaceOnUse">
<stop stop-color="#2F3B49"/>
<stop offset="1" stop-color="#293543"/>
</linearGradient>
<linearGradient id="paint2_linear_80_399" x1="8.157" y1="7.25061" x2="5.20264" y2="7.57319" gradientUnits="userSpaceOnUse">
<stop stop-color="#2F3B49"/>
<stop offset="1" stop-color="#293543"/>
</linearGradient>
<linearGradient id="paint3_linear_80_399" x1="16.3141" y1="7.25061" x2="13.3597" y2="7.57319" gradientUnits="userSpaceOnUse">
<stop stop-color="#2F3B49"/>
<stop offset="1" stop-color="#293543"/>
</linearGradient>
</defs>
</svg>
