<svg width="29" height="23" viewBox="0 0 29 23" fill="none" xmlns="http://www.w3.org/2000/svg">
<path d="M28.1758 2.71019C27.128 3.16982 26.0115 3.47447 24.8475 3.62239C26.045 2.90742 26.959 1.7839 27.3886 0.429686C26.2722 1.09535 25.0395 1.56554 23.7258 1.82793C22.6657 0.699121 21.1547 0 19.5065 0C16.3085 0 13.7339 2.59573 13.7339 5.77787C13.7339 6.23573 13.7727 6.67598 13.8678 7.0951C9.06557 6.86089 4.8163 4.55925 1.96174 1.05308C1.46338 1.91774 1.17106 2.90743 1.17106 3.97284C1.17106 5.97334 2.20123 7.74668 3.73682 8.77334C2.80878 8.75573 1.89834 8.4863 1.12703 8.0619C1.12703 8.07951 1.12703 8.1024 1.12703 8.12529C1.12703 10.9323 3.12927 13.2639 5.75491 13.801C5.28472 13.9296 4.77228 13.9912 4.24046 13.9912C3.87065 13.9912 3.49732 13.9701 3.14688 13.8926C3.8953 16.1801 6.01906 17.8619 8.54431 17.9165C6.57905 19.4539 4.08373 20.3802 1.38238 20.3802C0.90867 20.3802 0.454335 20.359 0 20.3009C2.55872 21.951 5.59114 22.8931 8.86129 22.8931C19.4906 22.8931 25.3019 14.0881 25.3019 6.45586C25.3019 6.20051 25.2931 5.95397 25.2807 5.70919C26.4271 4.8956 27.3904 3.8795 28.1758 2.71019Z" fill="url(#paint0_linear_278_445)"/>
<defs>
<linearGradient id="paint0_linear_278_445" x1="28.1758" y1="6.09724e-06" x2="-2.2543" y2="4.08931" gradientUnits="userSpaceOnUse">
<stop stop-color="#2F3B49"/>
<stop offset="1" stop-color="#293543"/>
</linearGradient>
</defs>
</svg>
