<svg width="22" height="23" viewBox="0 0 22 23" fill="none" xmlns="http://www.w3.org/2000/svg">
<path d="M10.8082 11.3363C4.84861 11.3363 0 16.185 0 22.1445C0 22.4039 0.210539 22.6144 0.469935 22.6144C0.729331 22.6144 0.939871 22.4039 0.939871 22.1445C0.939871 16.7028 5.36652 12.2761 10.8082 12.2761C16.2499 12.2761 20.6765 16.7028 20.6765 22.1445C20.6765 22.4039 20.8871 22.6144 21.1465 22.6144C21.4059 22.6144 21.6164 22.4039 21.6164 22.1445C21.6164 16.184 16.7677 11.3363 10.8082 11.3363Z" fill="url(#paint0_linear_80_412)"/>
<path d="M10.8081 0C7.95854 0 5.63904 2.31857 5.63904 5.16911C5.63904 8.01965 7.95858 10.3382 10.8081 10.3382C13.6577 10.3382 15.9773 8.01965 15.9773 5.16911C15.9773 2.31857 13.6578 0 10.8081 0ZM10.8081 9.39839C8.4764 9.39839 6.57886 7.50086 6.57886 5.16911C6.57886 2.83737 8.4764 0.939826 10.8081 0.939826C13.1399 0.939826 15.0374 2.83737 15.0374 5.16911C15.0374 7.50086 13.1399 9.39839 10.8081 9.39839Z" fill="url(#paint1_linear_80_412)"/>
<defs>
<linearGradient id="paint0_linear_80_412" x1="21.6164" y1="11.3363" x2="-1.15383" y2="16.1016" gradientUnits="userSpaceOnUse">
<stop stop-color="#2F3B49"/>
<stop offset="1" stop-color="#293543"/>
</linearGradient>
<linearGradient id="paint1_linear_80_412" x1="15.9773" y1="2.75343e-06" x2="4.74418" y2="1.22652" gradientUnits="userSpaceOnUse">
<stop stop-color="#2F3B49"/>
<stop offset="1" stop-color="#293543"/>
</linearGradient>
</defs>
</svg>
