<svg width="28" height="23" viewBox="0 0 28 23" fill="none" xmlns="http://www.w3.org/2000/svg">
<path d="M14.1533 21.845C14.0178 21.924 13.9037 21.9894 13.8134 22.0407C13.7229 21.9886 13.6084 21.9221 13.4725 21.8418C13.0995 21.6215 12.5653 21.2977 11.9238 20.8857C10.6398 20.0611 8.93041 18.886 7.2235 17.4818C5.51413 16.0756 3.82215 14.4517 2.56132 12.7319C1.29637 11.0065 0.5 9.2319 0.5 7.51379C0.5 3.64034 3.64005 0.500227 7.51357 0.500242L7.51747 0.500212C9.8869 0.481734 12.1021 1.67349 13.3923 3.66092L13.8093 4.30314L14.2296 3.66316C15.5295 1.68418 17.7402 0.494705 20.1079 0.500224C23.9742 0.519378 27.1039 3.64876 27.1233 7.51505C27.1229 9.26181 26.3254 11.0502 25.0616 12.7791C23.8012 14.5033 22.1097 16.1234 20.4008 17.5225C18.6943 18.9195 16.9853 20.0841 15.7016 20.9C15.0602 21.3076 14.5262 21.6275 14.1533 21.845Z" stroke="url(#paint0_linear_80_420)"/>
<defs>
<linearGradient id="paint0_linear_80_420" x1="27.6233" y1="6.02304e-06" x2="-2.21804" y2="3.97999" gradientUnits="userSpaceOnUse">
<stop stop-color="#2F3B49"/>
<stop offset="1" stop-color="#293543"/>
</linearGradient>
</defs>
</svg>
